<svg width="165" height="34" viewBox="0 0 165 34" fill="none" xmlns="http://www.w3.org/2000/svg">
<path d="M35.0463 0H0.214311C0.0960349 0 0 0.0964564 0 0.215448V33.7193C0 33.8383 0.0960349 33.9347 0.214311 33.9347H35.0463C35.1646 33.9347 35.26 33.8383 35.26 33.7193V0.215448C35.26 0.0964564 35.1646 0 35.0463 0Z" fill="#545BE8"/>
<path d="M24.6097 13.2043V20.2766C24.6485 21.0413 24.5111 21.8046 24.209 22.5039C23.9069 23.2032 23.4486 23.8185 22.8718 24.2995C21.7224 25.2607 20.0938 25.7413 17.986 25.7413C15.8921 25.7413 14.2658 25.2655 13.1002 24.2995C12.5263 23.8166 12.071 23.2006 11.7714 22.5015C11.4718 21.8024 11.3364 21.0401 11.3762 20.2766V18.568L7.01392 11.6614V20.1613C6.94077 21.8481 7.39078 23.515 8.29841 24.9193C9.20605 26.3236 10.5239 27.3921 12.0602 27.9691C15.9046 29.3368 20.0814 29.3368 23.9257 27.9691C25.4519 27.3809 26.7672 26.3242 27.6948 24.9411C28.5831 23.5193 29.0332 21.8528 28.986 20.1613V20.0964L24.6097 13.2043Z" fill="white"/>
<path d="M29 16.7945V5H24.6097V9.89516L29 16.7945Z" fill="white"/>
<path d="M11.3902 15.2589V5H7V8.35236L11.3902 15.2589Z" fill="white"/>
<path d="M61.209 10.2031H63.8369V18.6582C63.8369 19.6426 63.626 20.4717 63.2041 21.1455C62.7881 21.8193 62.2109 22.3262 61.4727 22.666C60.7402 23.0059 59.8965 23.1758 58.9414 23.1758C57.9863 23.1758 57.1367 23.0059 56.3926 22.666C55.6543 22.3262 55.0742 21.8193 54.6523 21.1455C54.2363 20.4717 54.0283 19.6426 54.0283 18.6582V10.2031H56.665V18.6582C56.665 19.2324 56.7559 19.7012 56.9375 20.0645C57.1191 20.4277 57.3799 20.6943 57.7197 20.8643C58.0654 21.0342 58.4727 21.1191 58.9414 21.1191C59.4219 21.1191 59.8291 21.0342 60.1631 20.8643C60.5029 20.6943 60.7607 20.4277 60.9365 20.0645C61.1182 19.7012 61.209 19.2324 61.209 18.6582V10.2031ZM68.3281 15.5205V23H65.7969V13.4902H68.1699L68.3281 15.5205ZM67.959 17.9111H67.2734C67.2734 17.208 67.3643 16.5752 67.5459 16.0127C67.7275 15.4443 67.9824 14.9609 68.3105 14.5625C68.6387 14.1582 69.0283 13.8506 69.4795 13.6396C69.9365 13.4229 70.4463 13.3145 71.0088 13.3145C71.4541 13.3145 71.8613 13.3789 72.2305 13.5078C72.5996 13.6367 72.916 13.8418 73.1797 14.123C73.4492 14.4043 73.6543 14.7764 73.7949 15.2393C73.9414 15.7021 74.0146 16.2676 74.0146 16.9355V23H71.4658V16.9268C71.4658 16.5049 71.4072 16.1768 71.29 15.9424C71.1729 15.708 71 15.5439 70.7715 15.4502C70.5488 15.3506 70.2734 15.3008 69.9453 15.3008C69.6055 15.3008 69.3096 15.3682 69.0576 15.5029C68.8115 15.6377 68.6064 15.8252 68.4424 16.0654C68.2842 16.2998 68.1641 16.5752 68.082 16.8916C68 17.208 67.959 17.5479 67.959 17.9111ZM78.6113 13.4902V23H76.0713V13.4902H78.6113ZM75.9131 11.0117C75.9131 10.6426 76.042 10.3379 76.2998 10.0977C76.5576 9.85742 76.9033 9.7373 77.3369 9.7373C77.7646 9.7373 78.1074 9.85742 78.3652 10.0977C78.6289 10.3379 78.7607 10.6426 78.7607 11.0117C78.7607 11.3809 78.6289 11.6855 78.3652 11.9258C78.1074 12.166 77.7646 12.2861 77.3369 12.2861C76.9033 12.2861 76.5576 12.166 76.2998 11.9258C76.042 11.6855 75.9131 11.3809 75.9131 11.0117ZM86.3193 26.6562V15.4326L86.6445 13.4902H88.8682V26.6562H86.3193ZM80.3076 18.3418V18.1572C80.3076 17.4307 80.3867 16.7715 80.5449 16.1797C80.709 15.582 80.9492 15.0723 81.2656 14.6504C81.582 14.2227 81.9688 13.8945 82.4258 13.666C82.8887 13.4316 83.4219 13.3145 84.0254 13.3145C84.6055 13.3145 85.1064 13.4316 85.5283 13.666C85.9502 13.9004 86.3047 14.2314 86.5918 14.6592C86.8848 15.0869 87.1191 15.5908 87.2949 16.1709C87.4707 16.751 87.6055 17.3867 87.6992 18.0781V18.4824C87.6113 19.1445 87.4766 19.7598 87.2949 20.3281C87.1191 20.8965 86.8848 21.3945 86.5918 21.8223C86.3047 22.25 85.9473 22.584 85.5195 22.8242C85.0977 23.0586 84.5938 23.1758 84.0078 23.1758C83.416 23.1758 82.8887 23.0557 82.4258 22.8154C81.9688 22.5693 81.582 22.2295 81.2656 21.7959C80.9492 21.3623 80.709 20.8525 80.5449 20.2666C80.3867 19.6748 80.3076 19.0332 80.3076 18.3418ZM82.8389 18.1572V18.3418C82.8389 18.7344 82.8711 19.1035 82.9355 19.4492C83 19.7891 83.1025 20.0908 83.2432 20.3545C83.3896 20.6182 83.5771 20.8262 83.8057 20.9785C84.0342 21.125 84.3154 21.1982 84.6494 21.1982C85.1123 21.1982 85.4844 21.0986 85.7656 20.8994C86.0527 20.6943 86.2637 20.416 86.3984 20.0645C86.5391 19.7129 86.6211 19.3115 86.6445 18.8604V17.709C86.627 17.3398 86.5771 17.0088 86.4951 16.7158C86.4189 16.417 86.3018 16.1621 86.1436 15.9512C85.9912 15.7402 85.792 15.5791 85.5459 15.4678C85.3057 15.3506 85.0127 15.292 84.667 15.292C84.3389 15.292 84.0576 15.3652 83.8232 15.5117C83.5889 15.6582 83.3984 15.8633 83.252 16.127C83.1113 16.3848 83.0059 16.6865 82.9355 17.0322C82.8711 17.3779 82.8389 17.7529 82.8389 18.1572ZM96.4883 20.7236V13.4902H99.0195V23H96.6377L96.4883 20.7236ZM96.7695 18.7725L97.5166 18.7549C97.5166 19.3877 97.4434 19.9766 97.2969 20.5215C97.1504 21.0605 96.9307 21.5293 96.6377 21.9277C96.3447 22.3203 95.9756 22.6279 95.5303 22.8506C95.085 23.0674 94.5605 23.1758 93.957 23.1758C93.4941 23.1758 93.0664 23.1113 92.6738 22.9824C92.2871 22.8477 91.9531 22.6396 91.6719 22.3584C91.3965 22.0713 91.1797 21.7051 91.0215 21.2598C90.8691 20.8086 90.793 20.2666 90.793 19.6338V13.4902H93.3242V19.6514C93.3242 19.9326 93.3564 20.1699 93.4209 20.3633C93.4912 20.5566 93.5879 20.7148 93.7109 20.8379C93.834 20.9609 93.9775 21.0488 94.1416 21.1016C94.3115 21.1543 94.499 21.1807 94.7041 21.1807C95.2256 21.1807 95.6357 21.0752 95.9346 20.8643C96.2393 20.6533 96.4531 20.3662 96.5762 20.0029C96.7051 19.6338 96.7695 19.2236 96.7695 18.7725ZM105.33 23.1758C104.592 23.1758 103.93 23.0586 103.344 22.8242C102.758 22.584 102.26 22.2529 101.85 21.8311C101.445 21.4092 101.135 20.9199 100.918 20.3633C100.701 19.8008 100.593 19.2031 100.593 18.5703V18.2188C100.593 17.498 100.695 16.8389 100.9 16.2412C101.105 15.6436 101.398 15.125 101.779 14.6855C102.166 14.2461 102.635 13.9092 103.186 13.6748C103.736 13.4346 104.357 13.3145 105.049 13.3145C105.723 13.3145 106.32 13.4258 106.842 13.6484C107.363 13.8711 107.8 14.1875 108.151 14.5977C108.509 15.0078 108.778 15.5 108.96 16.0742C109.142 16.6426 109.232 17.2754 109.232 17.9727V19.0273H101.674V17.3398H106.745V17.1465C106.745 16.7949 106.681 16.4814 106.552 16.2061C106.429 15.9248 106.241 15.7021 105.989 15.5381C105.737 15.374 105.415 15.292 105.022 15.292C104.688 15.292 104.401 15.3652 104.161 15.5117C103.921 15.6582 103.725 15.8633 103.572 16.127C103.426 16.3906 103.314 16.7012 103.238 17.0586C103.168 17.4102 103.133 17.7969 103.133 18.2188V18.5703C103.133 18.9512 103.186 19.3027 103.291 19.625C103.402 19.9473 103.558 20.2256 103.757 20.46C103.962 20.6943 104.208 20.876 104.495 21.0049C104.788 21.1338 105.119 21.1982 105.488 21.1982C105.945 21.1982 106.37 21.1104 106.763 20.9346C107.161 20.7529 107.504 20.4805 107.791 20.1172L109.021 21.4531C108.822 21.7402 108.55 22.0156 108.204 22.2793C107.864 22.543 107.454 22.7598 106.974 22.9297C106.493 23.0938 105.945 23.1758 105.33 23.1758ZM120.324 17.3838H117.037L117.02 15.5732H119.779C120.266 15.5732 120.664 15.5117 120.975 15.3887C121.285 15.2598 121.517 15.0752 121.669 14.835C121.827 14.5889 121.906 14.29 121.906 13.9385C121.906 13.54 121.83 13.2178 121.678 12.9717C121.531 12.7256 121.3 12.5469 120.983 12.4355C120.673 12.3242 120.271 12.2686 119.779 12.2686H117.951V23H115.314V10.2031H119.779C120.523 10.2031 121.188 10.2734 121.774 10.4141C122.366 10.5547 122.867 10.7686 123.277 11.0557C123.688 11.3428 124.001 11.7061 124.218 12.1455C124.435 12.5791 124.543 13.0947 124.543 13.6924C124.543 14.2197 124.423 14.7061 124.183 15.1514C123.948 15.5967 123.576 15.96 123.066 16.2412C122.562 16.5225 121.903 16.6777 121.089 16.707L120.324 17.3838ZM120.21 23H116.316L117.345 20.9434H120.21C120.673 20.9434 121.051 20.8701 121.344 20.7236C121.637 20.5713 121.854 20.3662 121.994 20.1084C122.135 19.8506 122.205 19.5547 122.205 19.2207C122.205 18.8457 122.141 18.5205 122.012 18.2451C121.889 17.9697 121.689 17.7588 121.414 17.6123C121.139 17.46 120.775 17.3838 120.324 17.3838H117.784L117.802 15.5732H120.966L121.572 16.2852C122.352 16.2734 122.979 16.4111 123.453 16.6982C123.934 16.9795 124.282 17.3457 124.499 17.7969C124.722 18.248 124.833 18.7314 124.833 19.2471C124.833 20.0674 124.654 20.7588 124.297 21.3213C123.939 21.8779 123.415 22.2969 122.724 22.5781C122.038 22.8594 121.2 23 120.21 23ZM126.248 18.3418V18.1572C126.248 17.46 126.348 16.8184 126.547 16.2324C126.746 15.6406 127.036 15.1279 127.417 14.6943C127.798 14.2607 128.267 13.9238 128.823 13.6836C129.38 13.4375 130.019 13.3145 130.739 13.3145C131.46 13.3145 132.102 13.4375 132.664 13.6836C133.227 13.9238 133.698 14.2607 134.079 14.6943C134.466 15.1279 134.759 15.6406 134.958 16.2324C135.157 16.8184 135.257 17.46 135.257 18.1572V18.3418C135.257 19.0332 135.157 19.6748 134.958 20.2666C134.759 20.8525 134.466 21.3652 134.079 21.8047C133.698 22.2383 133.229 22.5752 132.673 22.8154C132.116 23.0557 131.478 23.1758 130.757 23.1758C130.036 23.1758 129.395 23.0557 128.832 22.8154C128.275 22.5752 127.804 22.2383 127.417 21.8047C127.036 21.3652 126.746 20.8525 126.547 20.2666C126.348 19.6748 126.248 19.0332 126.248 18.3418ZM128.779 18.1572V18.3418C128.779 18.7402 128.814 19.1123 128.885 19.458C128.955 19.8037 129.066 20.1084 129.219 20.3721C129.377 20.6299 129.582 20.832 129.834 20.9785C130.086 21.125 130.394 21.1982 130.757 21.1982C131.108 21.1982 131.41 21.125 131.662 20.9785C131.914 20.832 132.116 20.6299 132.269 20.3721C132.421 20.1084 132.532 19.8037 132.603 19.458C132.679 19.1123 132.717 18.7402 132.717 18.3418V18.1572C132.717 17.7705 132.679 17.4072 132.603 17.0674C132.532 16.7217 132.418 16.417 132.26 16.1533C132.107 15.8838 131.905 15.6729 131.653 15.5205C131.401 15.3682 131.097 15.292 130.739 15.292C130.382 15.292 130.077 15.3682 129.825 15.5205C129.579 15.6729 129.377 15.8838 129.219 16.1533C129.066 16.417 128.955 16.7217 128.885 17.0674C128.814 17.4072 128.779 17.7705 128.779 18.1572ZM136.408 18.3418V18.1572C136.408 17.46 136.508 16.8184 136.707 16.2324C136.906 15.6406 137.196 15.1279 137.577 14.6943C137.958 14.2607 138.427 13.9238 138.983 13.6836C139.54 13.4375 140.179 13.3145 140.899 13.3145C141.62 13.3145 142.262 13.4375 142.824 13.6836C143.387 13.9238 143.858 14.2607 144.239 14.6943C144.626 15.1279 144.919 15.6406 145.118 16.2324C145.317 16.8184 145.417 17.46 145.417 18.1572V18.3418C145.417 19.0332 145.317 19.6748 145.118 20.2666C144.919 20.8525 144.626 21.3652 144.239 21.8047C143.858 22.2383 143.39 22.5752 142.833 22.8154C142.276 23.0557 141.638 23.1758 140.917 23.1758C140.196 23.1758 139.555 23.0557 138.992 22.8154C138.436 22.5752 137.964 22.2383 137.577 21.8047C137.196 21.3652 136.906 20.8525 136.707 20.2666C136.508 19.6748 136.408 19.0332 136.408 18.3418ZM138.939 18.1572V18.3418C138.939 18.7402 138.975 19.1123 139.045 19.458C139.115 19.8037 139.227 20.1084 139.379 20.3721C139.537 20.6299 139.742 20.832 139.994 20.9785C140.246 21.125 140.554 21.1982 140.917 21.1982C141.269 21.1982 141.57 21.125 141.822 20.9785C142.074 20.832 142.276 20.6299 142.429 20.3721C142.581 20.1084 142.692 19.8037 142.763 19.458C142.839 19.1123 142.877 18.7402 142.877 18.3418V18.1572C142.877 17.7705 142.839 17.4072 142.763 17.0674C142.692 16.7217 142.578 16.417 142.42 16.1533C142.268 15.8838 142.065 15.6729 141.813 15.5205C141.562 15.3682 141.257 15.292 140.899 15.292C140.542 15.292 140.237 15.3682 139.985 15.5205C139.739 15.6729 139.537 15.8838 139.379 16.1533C139.227 16.417 139.115 16.7217 139.045 17.0674C138.975 17.4072 138.939 17.7705 138.939 18.1572ZM149.504 9.49121V23H146.973V9.49121H149.504ZM155.498 13.4902L151.367 18.2012L149.152 20.4424L148.229 18.6143L149.987 16.3818L152.457 13.4902H155.498ZM152.87 23L150.058 18.6055L151.807 17.0762L155.788 23H152.87ZM161.729 20.3721C161.729 20.1904 161.677 20.0264 161.571 19.8799C161.466 19.7334 161.27 19.5986 160.982 19.4756C160.701 19.3467 160.294 19.2295 159.761 19.124C159.28 19.0186 158.832 18.8867 158.416 18.7285C158.006 18.5645 157.648 18.3682 157.344 18.1396C157.045 17.9111 156.811 17.6416 156.641 17.3311C156.471 17.0146 156.386 16.6543 156.386 16.25C156.386 15.8516 156.471 15.4766 156.641 15.125C156.816 14.7734 157.065 14.4629 157.388 14.1934C157.716 13.918 158.114 13.7041 158.583 13.5518C159.058 13.3936 159.591 13.3145 160.183 13.3145C161.009 13.3145 161.718 13.4463 162.31 13.71C162.907 13.9736 163.364 14.3369 163.681 14.7998C164.003 15.2568 164.164 15.7783 164.164 16.3643H161.633C161.633 16.1182 161.58 15.8984 161.475 15.7051C161.375 15.5059 161.217 15.3506 161 15.2393C160.789 15.1221 160.514 15.0635 160.174 15.0635C159.893 15.0635 159.649 15.1133 159.444 15.2129C159.239 15.3066 159.081 15.4355 158.97 15.5996C158.864 15.7578 158.812 15.9336 158.812 16.127C158.812 16.2734 158.841 16.4053 158.899 16.5225C158.964 16.6338 159.066 16.7363 159.207 16.8301C159.348 16.9238 159.529 17.0117 159.752 17.0938C159.98 17.1699 160.262 17.2402 160.596 17.3047C161.281 17.4453 161.894 17.6299 162.433 17.8584C162.972 18.0811 163.399 18.3857 163.716 18.7725C164.032 19.1533 164.19 19.6543 164.19 20.2754C164.19 20.6973 164.097 21.084 163.909 21.4355C163.722 21.7871 163.452 22.0947 163.101 22.3584C162.749 22.6162 162.327 22.8184 161.835 22.9648C161.349 23.1055 160.801 23.1758 160.191 23.1758C159.307 23.1758 158.557 23.0176 157.941 22.7012C157.332 22.3848 156.869 21.9834 156.553 21.4971C156.242 21.0049 156.087 20.501 156.087 19.9854H158.486C158.498 20.3311 158.586 20.6094 158.75 20.8203C158.92 21.0312 159.134 21.1836 159.392 21.2773C159.655 21.3711 159.939 21.418 160.244 21.418C160.572 21.418 160.845 21.374 161.062 21.2861C161.278 21.1924 161.442 21.0693 161.554 20.917C161.671 20.7588 161.729 20.5771 161.729 20.3721Z" fill="#545BE8"/>
</svg>
